<svg width="255" height="297" viewBox="0 0 255 297" fill="none" xmlns="http://www.w3.org/2000/svg">
<path d="M255 237.675C252.069 237.799 249.284 238.699 246.465 239.273C230.204 242.582 213.961 245.98 197.725 249.41C195.788 249.82 194.27 249.218 192.761 248.194C183.81 242.125 174.855 236.062 165.899 229.999C165.166 229.503 164.425 229.018 163.68 228.54C163.247 228.262 162.78 227.994 162.277 228.351C159.845 230.077 157.315 230.795 154.513 228.711C154.483 229.989 155.154 230.35 155.607 230.831C169.3 245.395 183.007 259.948 196.694 274.518C199.042 277.017 198.612 278.424 195.196 279.045C185.889 280.738 176.562 282.321 167.245 283.956C160.536 285.133 153.83 286.333 147.12 287.508C133.576 289.88 120.028 292.233 106.485 294.615C103.442 295.15 100.41 295.754 97.3797 296.358C94.6868 296.895 93.2531 296.296 91.8593 293.858C81.1534 275.125 70.4608 256.386 59.7611 237.65C58.9141 236.167 58.0157 234.712 57.1941 233.215C56.0673 231.162 56.3922 230.438 58.7309 229.968C60.6357 229.586 62.5674 229.338 64.8751 228.968C63.1305 226.285 62.9606 223.005 59.5055 221.856C57.668 221.244 56.0094 220.101 54.2585 219.22C52.6542 218.413 50.552 219.328 50.2334 221.125C49.8491 223.292 49.5942 225.465 50.0813 227.709C50.64 230.282 49.8798 232.869 49.6793 235.445C49.4542 238.338 49.2088 241.248 48.6668 244.092C47.7699 248.799 47.0461 253.522 46.5275 258.283C46.3069 260.308 44.9347 261.608 43.2555 262.437C36.1735 265.933 28.925 266.099 21.6439 263.116C19.2797 262.148 17.7413 260.413 17.6468 257.635C17.4833 252.828 16.0141 248.23 15.2924 243.515C14.5481 238.654 13.9277 233.745 13.7499 228.839C13.6731 226.72 14.2915 224.543 13.926 222.345C13.7353 221.198 13.521 220.224 12.4967 219.413C10.0073 217.441 9.84005 213.252 12.1275 210.963C13.0161 210.073 13.6902 209.151 13.8676 207.91C14.3159 204.776 16.3144 203.047 19.1229 202.023C21.993 200.978 24.9664 200.365 27.9976 200.194C29.5957 200.104 30.2298 199.545 29.836 198.001C27.8181 190.087 29.3985 182.327 30.8259 174.562C30.9692 173.783 31.1635 173.048 30.2715 172.589C28.5829 171.721 28.3658 170.139 28.8472 168.661C32.6501 156.981 36.6773 145.383 43.3648 134.951C48.9548 126.232 57.3356 121.448 66.9307 118.423C68.0759 118.062 69.2186 117.692 70.3533 117.299C71.6843 116.839 72.0555 116.067 71.0998 114.878C70.704 114.385 70.2692 113.899 69.9931 113.34C69.2369 111.809 68.1354 111.127 66.3646 110.842C62.4834 110.218 59.9775 107.465 59.9238 103.528C59.8903 101.077 59.0018 100.33 56.7687 99.703C50.7641 98.0179 46.0428 91.3832 45.7799 84.9326C45.6437 81.5936 46.029 78.3709 47.5378 75.3429C47.7625 74.892 48.0131 74.4413 47.7751 73.9037C46.1322 70.1913 47.1375 67.0014 49.815 64.1244C49.6672 63.8724 49.5926 63.6125 49.4207 63.4712C42.4701 57.759 42.7185 44.6782 51.7054 38.3702C53.3779 37.1962 53.8515 36.2463 53.559 34.1242C52.8433 28.9323 55.0868 24.5855 58.702 21.0196C62.8158 16.9618 67.741 14.6017 73.6587 14.7224C74.6827 14.7433 75.5953 14.7595 76.1879 13.5716C80.1317 5.66612 86.7988 2.48037 95.3632 2.5253C99.1262 2.54505 102.458 3.63554 105.345 6.01518C106.278 6.78396 106.784 6.50204 107.529 5.73213C113.618 -0.562001 124.224 -1.84713 131.621 2.74573C133.991 4.21722 135.72 6.27264 137.076 8.86739C138.108 8.28593 138.996 7.71923 139.938 7.2652C147.112 3.80764 157.649 5.84406 163.068 11.7C164.432 13.1745 165.454 14.876 165.813 16.8228C166.068 18.2071 166.678 18.5082 167.958 18.5501C176.187 18.8196 183.361 24.9316 185.06 32.978C185.55 35.302 185.24 37.5349 184.331 39.655C183.773 40.9561 183.903 41.6768 185.061 42.6547C192.78 49.1772 191.715 62.2019 183.101 67.4252C182.274 67.9264 181.752 68.3501 181.993 69.4984C183.119 74.8654 180.775 79.9104 175.8 82.4763C174.109 83.348 173.469 84.2106 173.58 86.2144C173.86 91.2274 172.453 95.8499 169.374 99.8852C168.917 100.484 168.45 101.21 167.814 101.513C165.554 102.589 164.906 104.557 164.365 106.772C163.474 110.418 161.895 113.805 159.949 117.015C159.46 117.822 158.998 118.646 158.571 119.382C158.747 120.183 159.359 120.327 159.849 120.564C166.524 123.799 171.677 128.72 175.698 134.89C180.54 142.32 184.864 150.047 188.833 157.976C189.227 158.764 189.581 159.589 189.816 160.436C190.124 161.542 189.996 162.675 188.932 163.306C187.662 164.058 187.892 164.845 188.416 165.957C190.762 170.935 193.007 175.96 194.114 181.398C194.328 182.449 194.58 183.506 194.644 184.571C194.729 186.001 195.49 186.208 196.679 186.006C200.225 185.404 203.776 184.832 207.326 184.251C207.944 184.15 208.657 184.179 208.911 183.44C210.268 179.5 213.59 178.667 217.147 178.11C229.669 176.147 242.185 174.149 254.852 172.146C255 173.153 255 174.179 254.873 175.341C253.064 175.686 251.373 175.847 249.7 176.112C238.865 177.825 228.045 179.629 217.197 181.249C213.945 181.734 212.143 183.354 211.288 186.471C206.172 205.116 200.994 223.744 195.841 242.379C194.992 245.451 195.738 246.276 198.857 245.654C203.124 244.802 207.381 243.898 211.641 243.017C226.094 240.027 240.547 237.038 255 234.048C255 235.199 255 236.351 255 237.675ZM55.0817 95.9242C58.18 97.9019 61.4419 98.3876 64.775 96.675C66.939 95.5631 67.1366 95.5672 67.6969 98.0247C68.5694 101.852 69.5191 105.662 71.338 109.171C77.3245 120.723 87.546 126.28 99.659 129.13C99.8287 129.17 100.024 129.1 100.315 129.07C100.502 128.163 100.431 127.2 100.822 126.317C101.907 123.871 105.876 122.332 108.367 124.359C112.034 127.345 113.942 127.287 117.968 124.878C120.493 123.368 123.038 123.289 125.419 125.084C127.359 126.547 129.447 126.814 131.698 126.285C133.079 125.961 134.157 125.021 135.315 124.253C137.696 122.674 140.356 123.835 140.885 126.661C140.973 127.134 140.749 127.695 141.28 128.076C141.92 128.188 142.492 127.894 143.077 127.678C149.705 125.227 154.634 120.825 158.086 114.679C161.997 107.717 163.125 100.054 163.795 92.2777C164.436 84.8524 165.104 77.4272 165.574 69.9902C165.836 65.8418 166.433 61.6795 165.712 57.5051C165.406 55.7316 164.983 55.4082 163.351 56.0432C156.327 58.7762 149.978 58.2366 144.776 52.1938C144.217 51.5444 143.714 51.3871 143.032 52.0042C142.564 52.4265 142.035 52.7827 141.519 53.1473C137.256 56.1576 130.959 56.1673 126.706 53.2509C125.5 52.4233 124.863 51.055 123.65 50.123C120.922 52.7902 117.785 54.2857 114.028 54.0053C110.33 53.7295 107.353 51.9315 104.885 48.9616C101.856 52.6643 98.1305 54.37 93.5542 54.5486C89.0188 54.7256 85.0594 53.2028 81.1692 50.7835C80.1827 57.0533 79.2578 63.0279 78.2972 68.9968C77.7959 72.1116 77.3258 75.2365 76.663 78.3183C76.2083 80.4324 74.6625 81.6596 72.5682 82.0663C70.861 82.3978 69.4087 81.6721 68.3586 80.414C67.0587 78.8567 66.389 76.9744 66.9274 74.9378C67.354 73.3237 66.7767 72.2695 65.568 71.3353C61.9746 68.5582 55.336 69.2641 52.4117 72.7722C47.4637 78.7081 47.5013 90.5362 55.0817 95.9242ZM62.4796 237.046C64.3997 240.393 66.3232 243.739 68.2393 247.089C76.878 262.192 85.5225 277.292 94.1374 292.409C94.8335 293.631 95.599 294 97.0542 293.73C107.91 291.714 118.782 289.788 129.655 287.864C139.718 286.084 149.787 284.336 159.856 282.584C169.488 280.908 179.128 279.279 188.751 277.548C190.622 277.211 192.594 277.146 194.524 276.264C193.546 274.661 192.25 273.628 191.143 272.442C178.669 259.076 166.179 245.725 153.693 232.371C152.483 231.077 151.308 229.77 149.361 229.554C148.613 229.472 147.925 228.977 147.456 228.377C146.796 227.532 146.128 227.528 145.15 227.832C142.465 228.667 139.779 227.776 138.86 225.424C138.179 223.68 137.165 223.333 135.477 223.491C135.89 224.037 136.238 224.551 136.637 225.021C143.108 232.638 149.569 240.262 156.064 247.857C161.533 254.251 167.107 260.555 172.512 267.002C176.372 271.608 174.986 275.144 169.063 276.2C165.088 276.908 161.105 277.567 157.127 278.255C142.397 280.803 127.663 283.335 112.938 285.913C107.055 286.943 104.49 285.791 101.408 280.737C92.7809 266.584 84.1169 252.454 75.464 238.317C75.0706 237.674 74.7384 236.981 74.0185 236.6C71.7677 235.409 69.7411 233.907 67.9081 232.14C67.4842 231.732 67.0137 231.442 66.3959 231.471C64.3254 231.567 62.2962 231.887 60.16 232.435C60.6656 234.149 61.6288 235.417 62.4796 237.046ZM85.7932 236.864C85.095 236.039 84.2872 235.379 83.2035 236.103C81.7619 237.066 80.1936 237.623 78.2733 237.75C78.7939 238.675 79.1702 239.398 79.5949 240.092C87.7925 253.469 95.9962 266.843 104.197 280.218C106.104 283.328 108.036 284.254 111.675 283.621C130.508 280.345 149.338 277.057 168.159 273.717C169.51 273.477 171.34 273.686 171.902 271.986C172.47 270.271 170.963 269.231 170.017 268.122C162.753 259.603 155.448 251.119 148.162 242.619C143.511 237.193 138.867 231.76 134.231 226.321C133.037 224.921 131.7 223.773 129.723 223.993C123.265 224.71 116.812 225.473 110.357 226.221C109.675 226.3 108.983 226.37 108.475 226.897C108.903 229.901 109.138 230.017 111.908 229.538C117.504 228.57 123.115 227.696 128.717 226.765C130.108 226.534 131.108 226.919 131.94 228.15C133.176 229.981 134.561 231.717 135.944 233.444C139.226 237.542 142.553 241.604 145.843 245.694C147.352 247.57 147.002 248.53 144.64 249.098C144.151 249.215 143.652 249.3 143.153 249.367C140.088 249.774 137.013 250.109 133.959 250.584C122.677 252.34 111.327 253.634 100.083 255.644C98.6887 255.894 97.6492 255.434 96.8695 254.203C93.2483 248.485 89.5914 242.79 85.7932 236.864ZM143.624 210.129C144.698 209.058 145.744 207.956 146.859 206.929C147.447 206.388 148.198 206.082 148.877 206.801C149.551 207.513 149.199 208.222 148.662 208.824C147.863 209.72 146.977 210.541 146.201 211.455C143.623 214.492 141.738 217.898 140.983 221.846C140.732 223.159 140.927 224.514 142.324 225.071C143.764 225.646 145.073 225.167 145.96 223.843C146.273 223.376 146.559 222.85 146.692 222.31C147.854 217.585 150.769 213.943 153.951 210.468C154.689 209.662 155.585 208.769 156.669 209.831C157.66 210.802 156.655 211.525 156.057 212.224C153.712 214.965 151.318 217.671 149.828 221.017C149.312 222.176 148.84 223.353 148.882 224.655C148.916 225.678 149.3 226.528 150.312 226.91C151.379 227.313 152.334 226.993 153.042 226.151C153.482 225.628 153.807 224.992 154.103 224.368C155.821 220.738 158.134 217.5 160.65 214.399C161.002 213.964 161.43 213.554 161.903 213.262C162.488 212.9 163.125 212.96 163.625 213.502C164.111 214.029 163.921 214.552 163.55 215.042C163.168 215.545 162.75 216.022 162.379 216.532C160.414 219.237 158.183 221.774 157.111 225.037C156.892 225.702 156.903 226.307 157.421 226.785C157.963 227.284 158.599 227.131 159.196 226.852C160.125 226.418 160.918 225.781 161.618 225.047C164.415 222.116 167.339 219.482 171.036 217.551C175.924 214.999 176.459 208.933 172.604 204.977C171.21 203.548 169.506 202.599 167.78 201.661C166.99 201.232 165.792 200.874 166.401 199.632C166.948 198.517 168.006 198.863 168.902 199.258C173.109 201.11 176.547 203.713 177.779 208.454C177.87 208.804 177.958 209.202 178.479 209.413C178.68 209.295 178.971 209.177 179.199 208.985C182.955 205.82 186.177 202.195 188.571 197.885C190.761 193.944 192.183 189.705 191.786 185.191C191.149 177.943 188.069 171.455 184.836 165.057C184.408 164.21 183.922 163.929 182.888 164.153C174.797 165.904 167.447 169.286 160.692 174.029C160.258 174.333 159.81 174.615 160.083 175.235C161.111 177.575 162.024 179.978 163.576 182.307C166.641 178.468 170.368 176.259 174.95 175.598C176.148 175.425 177.819 174.861 178.102 176.592C178.354 178.135 176.626 178.043 175.603 178.253C172.242 178.944 169.11 180.099 166.891 182.84C163.939 186.487 161.509 190.489 159.421 194.694C159.283 194.971 159.118 195.26 159.428 195.785C160.403 196.034 161.654 195.951 162.692 196.583C163.331 196.972 163.798 197.498 163.531 198.298C163.251 199.133 162.622 199.118 161.838 198.995C150.231 197.182 140.628 204.562 136.611 212.734C135.691 214.607 135.04 216.61 135.219 218.768C135.31 219.863 135.917 220.501 136.995 220.665C138.136 220.838 138.555 220.138 138.796 219.173C139.626 215.85 141.423 213.031 143.624 210.129ZM56.0937 168.218C54.7308 167.96 53.3733 167.668 52.0042 167.45C46.8889 166.632 41.8273 166.724 36.8378 168.309C35.5134 168.729 34.7312 169.336 34.4988 170.867C33.9492 174.487 33.1342 178.065 32.4919 181.672C31.5074 187.199 31.335 192.714 32.829 198.203C33.1942 199.545 33.8269 200.121 35.3164 200.175C39.062 200.311 42.7044 201.067 46.1173 202.718C47.5475 203.41 48.6522 204.404 49.0993 205.969C49.7396 208.211 50.2954 210.455 52.213 212.078C52.6754 212.47 52.7548 213.327 52.9834 213.979C53.1484 214.45 53.1339 215.027 53.6145 215.316C56.1986 216.868 58.8479 218.289 61.7527 219.451C63.0189 209.203 69.1226 203.022 77.9193 199.232C77.8361 198.43 77.4756 198.068 77.1448 197.687C74.3591 194.472 71.2612 191.58 67.8868 189.008C62.8704 185.184 57.403 182.651 50.8542 183.566C50.4184 183.627 49.9706 183.609 49.5282 183.614C48.7273 183.621 47.9367 183.505 47.7557 182.565C47.5416 181.453 48.3834 181.178 49.2199 180.982C52.1541 180.294 55.0795 180.286 58.0427 180.906C60.398 181.399 62.5092 182.565 64.951 183.334C65.9367 180.196 66.4126 177.103 66.6842 173.977C66.7597 173.108 66.0049 172.676 65.3783 172.245C62.6349 170.355 59.5619 169.219 56.0937 168.218ZM93.3055 225.544C89.9268 222.22 86.9598 218.489 83.2727 215.463C82.3603 214.714 80.4351 213.939 81.7955 212.42C83.0696 210.996 84.1741 212.699 85.1095 213.462C89.3398 216.913 92.6925 221.255 96.6441 224.993C97.3795 225.689 98.0712 226.431 98.9796 226.914C100.765 227.864 102.409 227.055 102.747 225.044C103.005 223.508 102.46 222.162 101.64 220.927C97.5624 214.788 92.7604 209.258 87.463 204.151C84.8579 201.64 81.722 201.226 78.4793 202.353C71.6728 204.721 67.3105 209.551 65.2461 216.415C64.8201 217.831 64.4422 219.335 64.7705 220.894C66.1361 227.378 70.3177 231.505 76.0289 234.292C77.3739 234.948 78.896 235.108 80.3893 234.279C79.9284 233.395 79.096 233.156 78.4329 232.718C76.4769 231.426 74.5684 230.075 72.9311 228.384C72.4119 227.848 72.1146 227.174 72.7288 226.535C73.2992 225.941 73.9831 226.045 74.618 226.505C74.8738 226.691 75.108 226.906 75.3634 227.092C78.0731 229.064 80.7415 231.11 83.7879 232.549C86.0393 233.613 87.6174 233.411 88.9464 232.025C88.3371 231.013 87.2656 230.537 86.3578 229.891C82.8996 227.428 79.6637 224.698 76.5236 221.848C75.814 221.204 75.2702 220.408 76.0245 219.557C76.7971 218.686 77.6233 219.192 78.331 219.832C78.5186 220.002 78.6937 220.185 78.8845 220.351C82.9459 223.881 87.0574 227.345 91.7924 229.968C93.0257 230.652 94.2919 231.203 95.7606 230.9C96.4315 230.761 96.9333 230.379 97.1901 229.77C97.4966 229.043 96.8091 228.802 96.4145 228.436C95.443 227.533 94.4672 226.636 93.3055 225.544ZM103.666 176.104C103.659 176.737 103.634 177.37 103.648 178.002C103.678 179.314 102.985 180.052 101.749 180.159C99.738 180.334 97.7177 180.407 95.7001 180.495C94.3087 180.557 93.1803 179.955 92.5628 178.747C91.9772 177.601 91.0968 177.495 90.0395 177.623C89.4131 177.698 88.7873 177.788 88.1664 177.9C87.4068 178.037 86.2546 177.583 86.0335 178.624C85.769 179.87 85.4566 181.27 86.5221 182.402C87.7354 183.691 88.9741 184.956 90.17 186.261C90.8657 187.021 91.67 187.299 92.7007 187.253C96.1076 187.102 99.5261 187.026 102.927 187.019C106.525 187.012 107.992 184.336 110.042 182.315C110.294 182.066 110.279 181.48 110.279 181.05C110.287 173.141 110.302 165.231 110.255 157.322C110.242 155.068 106.707 151.768 104.438 151.76C101.088 151.75 97.7297 151.902 94.3904 151.714C91.7548 151.566 89.8704 152.456 88.0901 154.384C86.5197 156.085 85.5952 157.778 85.8744 160.107C85.9866 161.043 86.0184 162.024 85.8685 162.949C85.2629 166.687 86.5608 169.529 89.5246 171.835C90.5809 172.657 91.5 173.264 92.8833 173.173C95.466 173.004 98.0558 172.936 100.644 172.859C103.67 172.768 103.67 172.783 103.666 176.104ZM120.036 214.169C122.856 213.845 125.673 213.484 128.498 213.215C129.607 213.109 130.366 212.744 130.85 211.667C131.538 210.136 132.861 209.202 134.42 208.762C135.474 208.464 136.156 207.898 136.787 207.055C141.151 201.226 146.937 197.651 154.089 196.34C155.547 196.073 156.277 195.331 156.471 193.584C136.802 195.822 117.308 198.04 97.8463 200.255C97.8675 201.537 98.6034 201.636 99.1179 201.931C100.104 202.498 101.124 203.005 102.11 203.571C106.024 205.818 108.989 208.716 109.113 213.632C109.155 215.289 110.261 215.466 111.633 215.263C114.314 214.865 117.006 214.537 120.036 214.169ZM136.809 165.033C135.358 165.096 133.908 165.162 132.457 165.222C131.815 165.248 130.998 165.286 130.912 164.504C130.714 162.688 130.453 160.753 131.227 159.081C131.879 157.673 133.512 158.53 134.694 158.305C135.188 158.211 135.696 158.183 136.198 158.127C137.571 157.975 138.725 158.311 139.364 159.652C139.714 160.388 140.273 160.651 141.044 160.593C142.303 160.498 143.562 160.416 144.82 160.315C145.273 160.279 145.814 160.176 145.851 159.661C145.957 158.193 146.547 156.657 145.321 155.328C144.507 154.447 143.706 153.545 142.989 152.585C142.27 151.621 141.377 151.323 140.206 151.34C137.305 151.382 134.415 151.602 131.5 151.475C128.318 151.335 125.76 154.171 125.695 157.392C125.677 158.306 126.088 159.412 125.211 160.075C124.243 160.807 124.227 161.732 124.206 162.763C124.109 167.503 124.475 172.279 123.78 176.974C123.204 180.868 125.111 183.286 127.792 185.498C128.323 185.937 128.886 186.117 129.54 186.029C132.62 185.615 135.72 185.754 138.812 185.672C139.524 185.653 140.196 185.589 140.745 185.068C143.386 182.565 146.486 180.325 145.672 175.933C145.575 175.405 145.877 174.815 145.886 174.252C145.908 172.816 146.507 171.149 145.61 169.996C143.496 167.278 141.578 163.955 136.809 165.033ZM173.156 219.586C170.789 221.162 167.752 221.862 166.347 224.703C167.659 226.277 190.752 241.864 192.67 242.497C194.006 239.988 193.994 239.858 191.827 238.441C187.381 235.532 182.921 232.646 178.472 229.742C177.832 229.324 177.128 228.859 177.276 227.97C177.423 227.09 178.201 226.857 178.966 226.68C179.95 226.453 180.926 226.19 181.912 225.972C186.841 224.883 191.774 223.814 196.699 222.708C197.352 222.561 198.222 222.574 198.478 221.802C199.385 219.067 200.227 216.309 200.731 213.502C199.952 213.089 199.301 213.227 198.705 213.335C192.807 214.404 186.92 215.531 181.022 216.594C178.299 217.085 175.463 217.218 173.156 219.586ZM205.145 187.456C202.097 187.944 199.055 188.477 195.998 188.894C194.945 189.037 194.519 189.457 194.299 190.505C192.333 199.873 187.1 207.061 179.436 212.605C178.913 212.984 178.146 213.215 178.181 214.07C178.536 214.456 178.925 214.248 179.269 214.186C186.339 212.921 193.404 211.626 200.478 210.38C201.485 210.203 201.823 209.557 202.053 208.733C202.662 206.544 203.268 204.354 203.867 202.162C205.194 197.305 206.516 192.447 207.881 187.44C206.937 187.44 206.198 187.44 205.145 187.456ZM43.9176 256.877C44.1525 254.774 44.3874 252.671 44.6395 250.413C36.3241 253.83 28.1584 253.968 19.9412 250.847C19.6106 253.214 20.2487 255.25 20.3444 257.322C20.4207 258.977 21.37 259.968 22.8333 260.577C29.2117 263.232 35.5176 262.934 41.7443 260.085C42.9506 259.533 43.8143 258.63 43.9176 256.877ZM24.3016 223.739C21.8092 223.397 19.409 222.65 16.9864 221.876C16.5147 227.994 16.474 228.482 21.5831 229.997C26.2425 231.379 31.0597 231.565 35.8516 231.174C39.1042 230.909 42.381 230.403 45.3934 228.949C46.0662 228.624 46.8107 228.381 46.9641 227.467C47.2665 225.665 47.4847 223.866 47.1513 221.823C39.7507 224.438 32.2179 224.393 24.3016 223.739ZM96.3905 248.685C97.266 249.879 97.811 251.325 99.2187 252.462C103.643 248.811 108.023 245.196 112.787 241.263C104.391 239.267 96.5525 237.5 88.207 235.952C91.0707 240.408 93.6565 244.43 96.3905 248.685ZM137.304 247.163C131.737 245.76 126.111 244.55 120.624 242.883C117.073 241.805 114.251 242.214 111.842 245.07C111.562 245.401 111.142 245.61 110.81 245.901C108.434 247.978 105.796 249.764 103.382 252.419C112.909 251.087 122.035 249.873 131.136 248.493C133.248 248.173 135.5 248.417 137.304 247.163ZM119.399 238.946C119.172 239.217 118.72 239.351 118.897 240.031C126.486 241.909 134.158 243.808 141.829 245.706C141.928 245.563 142.026 245.42 142.124 245.276C138.048 240.188 133.973 235.1 129.766 229.848C126.421 233.196 122.97 235.95 119.399 238.946ZM126.298 221.944C128.416 221.749 130.516 221.281 132.82 221.684C132.505 220.59 132.241 219.695 131.99 218.796C131.352 216.513 130.427 215.718 128.078 215.952C122.241 216.533 116.415 217.226 110.588 217.908C109.905 217.988 109.231 218.236 109.005 219.057C108.603 220.514 107.574 221.555 106.589 222.558C106.743 224.269 107.824 224.231 109.05 224.037C114.662 223.149 120.308 222.543 126.298 221.944ZM115.272 238.895C119.03 236.4 122.417 233.477 125.489 230.045C120.454 230.544 115.561 231.348 110.669 232.162C109.984 232.276 109.83 232.758 109.777 233.405C109.461 237.259 110.409 238.458 114.217 238.917C114.467 238.947 114.721 238.939 115.272 238.895ZM117.354 163.554C117.355 164.25 117.369 164.946 117.353 165.641C117.329 166.643 117.559 167.448 118.778 167.397C119.88 167.351 120.305 166.668 120.298 165.626C120.286 163.855 120.306 162.084 120.278 160.313C120.261 159.277 120.624 158.573 121.735 158.497C123.561 158.372 123.449 157.261 123.144 156C120.641 155.558 120.595 155.564 120.239 152.892C120.047 151.458 119.169 151.491 118.186 151.782C117.104 152.103 117.315 153.102 117.382 153.866C117.518 155.407 116.833 156.085 115.366 156.16C114.926 156.182 114.478 156.223 114.053 156.333C113.03 156.601 113.2 157.453 113.231 158.194C113.264 158.961 113.823 159.045 114.443 159.054C117.365 159.097 117.365 159.102 117.36 162.049C117.36 162.429 117.358 162.808 117.354 163.554ZM89.2675 193.579C88.9632 193.652 88.6509 193.7 88.3558 193.8C85.4416 194.783 85.5359 194.781 86.8432 197.576C89.3975 203.037 94.3874 206.467 97.8931 211.161C96.2819 207.175 94.5219 203.289 92.648 199.459C91.6826 197.486 90.9869 195.356 89.2675 193.579ZM48.7832 213.865C47.4832 214.65 46.1705 215.466 44.6941 215.816C34.6052 218.207 24.612 218.886 14.9907 213.902C14.7576 213.782 14.515 213.725 14.2696 214.007C13.9667 214.955 14.7481 215.302 15.3532 215.703C16.7355 216.62 18.2639 217.227 19.8636 217.637C26.1851 219.259 32.5729 219.534 39.0231 218.569C42.0985 218.108 45.1443 217.538 47.8284 215.856C48.4806 215.448 49.626 215.157 48.7832 213.865ZM106.497 215.608C106.479 210.325 103.556 206.397 98.7512 205.198C99.0362 206.715 104.428 219.117 105.059 219.706C106.403 218.646 106.477 218.453 106.497 215.608ZM169.172 94.7351C170.586 91.3706 171.465 87.9342 170.677 84.2468C170.532 83.5691 170.346 83.0371 169.552 82.9636C168.736 82.8882 168.001 83.053 167.614 83.8273C167.365 84.3247 167.191 84.8989 167.145 85.4521C166.782 89.8369 166.459 94.2249 166.11 98.7839C167.718 97.8409 168.314 96.3612 169.172 94.7351ZM24.226 205.557C27.9016 204.966 31.5699 204.588 35.3149 205.012C38.1481 205.333 40.9337 205.696 43.5466 206.911C44.1011 207.169 44.796 207.632 45.2073 206.852C45.6847 205.948 44.806 205.635 44.2214 205.358C43.3708 204.955 42.4792 204.608 41.5712 204.363C36.5014 202.992 31.3241 203.118 26.1708 203.534C23.8745 203.719 21.5425 204.184 19.4607 205.336C18.8878 205.652 18.04 206.003 18.5119 206.882C18.9244 207.651 19.6348 207.214 20.1789 206.945C21.3743 206.354 22.6247 205.94 24.226 205.557ZM123.829 138.568C123.865 138.516 123.918 138.469 123.933 138.411C123.946 138.359 123.94 138.261 123.907 138.242C123.091 137.767 122.194 138.003 121.338 138.003C114.696 138.005 108.246 137.288 102.593 133.313C101.909 132.833 101.103 132.541 100.194 133.006C105.155 138.91 115.81 141.459 123.829 138.568ZM158.965 189.39C161.546 186.73 161.618 183.965 159.37 181.055C158.992 180.566 158.836 179.911 158.505 179.378C158.172 178.843 158.177 177.982 156.977 177.905C156.749 182.225 156.524 186.51 156.296 190.861C157.626 191.042 158.312 190.501 158.965 189.39ZM158.744 150.671C158.594 153.122 158.436 155.572 158.297 158.023C158.154 160.54 158.111 163.066 157.875 165.574C157.652 167.942 157.429 170.29 157.785 172.643C158.93 170.204 159.988 151.433 159.186 149.728C159.034 149.98 158.91 150.187 158.744 150.671ZM74.5531 149.963C74.4596 149.742 74.3661 149.522 74.2414 149.228C73.4842 150.945 71.1975 171.823 71.7559 173.552C72.1395 171.188 72.529 169.282 72.7457 167.358C73.3889 161.646 73.964 155.927 74.5531 149.963ZM99.7114 235.804C101.03 236.051 102.349 236.299 103.89 236.588C102.604 235.268 101.501 234.161 100.431 233.025C99.9656 232.531 99.5026 232.098 98.8194 232.572C96.9323 233.882 94.8552 234.177 92.487 233.587C92.6993 233.908 92.7473 234.074 92.8322 234.096C95.018 234.657 97.2077 235.203 99.7114 235.804ZM86.9166 131.304C87.2025 129.389 86.1094 128.25 84.4521 128.736C83.4341 129.035 82.8283 129.74 82.7015 130.758C82.5881 131.668 83.0698 132.4 83.9039 132.705C85.1493 133.161 86.1059 132.629 86.9166 131.304ZM105.412 232.217C107.267 230.562 106.042 228.975 105.3 227.004C104.412 228.57 103.136 229.346 101.993 230.232C103.493 232.566 103.753 232.735 105.412 232.217ZM79.9781 128.605C81.4448 128.545 82.4154 127.785 82.4988 126.338C82.5632 125.221 81.5641 124.727 80.6268 124.506C79.5613 124.255 78.727 124.816 78.3926 125.798C77.9651 127.053 78.4445 128.018 79.9781 128.605ZM89.6582 136.987C90.1093 136.778 90.6268 136.649 90.9982 136.343C91.8937 135.606 92.4439 134.714 91.5242 133.616C90.5791 132.487 89.4723 132.483 88.397 133.38C87.0837 134.477 87.5395 136.063 89.6582 136.987ZM99.3486 143.808C101.274 143.336 102.239 142.218 101.776 140.934C101.476 140.105 100.912 139.504 99.9483 139.562C98.8681 139.627 98.2563 140.309 97.9248 141.287C97.519 142.485 98.0721 143.22 99.3486 143.808ZM109.091 145.605C108.828 146.937 109.093 148.052 110.557 148.419C111.634 148.689 112.385 148.09 112.772 147.104C113.201 146.009 112.823 145.087 111.881 144.483C110.703 143.728 109.871 144.354 109.091 145.605ZM92.7213 138.588C92.6559 139.609 93.0618 140.319 94.1054 140.511C94.9807 140.672 95.7506 140.395 96.2406 139.63C96.8824 138.629 97.0337 137.594 95.9505 136.79C94.8749 135.992 93.6131 136.617 92.7213 138.588ZM116.971 144.988C115.611 145.044 114.842 145.81 114.784 147.11C114.736 148.163 115.377 148.908 116.418 149.153C117.372 149.377 118.016 148.831 118.378 148.025C118.978 146.687 118.502 145.704 116.971 144.988ZM136.523 135.39C136.061 135.46 135.661 135.684 135.468 136.094C134.92 137.261 135.063 138.344 136.21 139.039C137.315 139.707 138.321 139.365 138.895 138.246C139.492 137.083 138.981 136.18 137.891 135.61C137.574 135.443 137.171 135.441 136.523 135.39ZM126.908 146.376C128.198 146.855 129.207 146.534 129.584 145.168C129.869 144.133 129.673 143.078 128.499 142.652C127.405 142.256 126.497 142.656 125.969 143.707C125.457 144.728 125.923 145.525 126.908 146.376ZM106.116 146.081C107.28 145.383 107.62 144.399 106.991 143.195C106.517 142.289 105.646 141.997 104.73 142.354C103.673 142.766 103.184 143.686 103.401 144.798C103.66 146.125 104.613 146.448 106.116 146.081ZM120.647 147.295C121.408 148.669 122.517 149.038 123.707 147.999C124.713 147.12 124.548 145.979 123.662 145.012C123.151 144.456 122.448 144.285 121.774 144.597C120.761 145.064 120.293 145.892 120.647 147.295ZM134.421 142.299C134.895 140.976 134.589 139.96 133.24 139.391C132.346 139.015 131.633 139.369 131.135 140.107C130.475 141.083 130.668 142.046 131.502 142.801C132.473 143.679 133.43 143.48 134.421 142.299ZM86.7904 188.967C86.1603 188.83 85.5073 188.796 84.9361 189.085C84.1198 189.496 83.4115 190.047 83.7811 191.153C84.1526 192.264 84.9426 192.086 85.7748 191.799C86.5955 191.516 87.4542 191.309 88.0406 190.638C88.0194 189.867 87.5797 189.436 86.7904 188.967ZM142.026 134.123C142.165 133.998 142.323 133.888 142.441 133.745C143.025 133.039 143.195 132.205 142.588 131.515C141.747 130.559 140.882 131.451 140.054 131.715C139.429 131.915 138.859 132.271 139.076 133.063C139.342 134.039 140.062 134.468 141.054 134.427C141.299 134.417 141.54 134.324 142.026 134.123Z" fill="#333334"/>
<path d="M0 209.525C2.8069 209.901 5.48082 208.833 8.22988 208.674C9.23776 208.616 10.2436 208.522 11.2517 208.469C11.7881 208.441 12.3025 208.594 12.4933 209.141C12.7183 209.787 12.3222 210.282 11.8171 210.561C11.2204 210.892 10.5598 211.207 9.89552 211.297C6.70862 211.73 3.5111 212.085 0.158681 212.431C2.26178e-08 211.494 0 210.594 0 209.525Z" fill="#333334"/>
<path d="M249.451 209.755C248.581 212.909 247.015 215.358 244.033 216.597C242.14 217.383 240.151 217.548 238.467 216.161C236.783 214.774 236.483 212.842 237.037 210.8C237.898 207.628 239.77 205.252 242.837 203.981C244.608 203.248 246.483 203.131 248.039 204.453C249.614 205.791 250.111 207.573 249.451 209.755Z" fill="#333334"/>
<path d="M134.76 117.232C125.88 118.833 117.192 119.178 108.626 116.309C108.005 116.101 107.454 115.872 106.953 116.569C106.023 117.864 104.809 118.329 103.332 117.53C101.823 116.714 101.562 115.199 101.751 113.762C102.198 110.369 103.908 107.766 107.026 106.145C110.362 104.411 113.966 103.832 117.635 103.696C123.059 103.494 128.482 103.655 133.874 104.401C138.156 104.993 141.723 108.157 142.652 112.234C142.991 113.723 142.759 115.138 142.002 116.438C140.97 118.209 139.14 118.715 137.507 117.516C136.601 116.851 135.84 116.781 134.76 117.232ZM118.312 115.41C119.195 115.444 120.078 115.502 120.961 115.508C125.061 115.535 129.167 115.589 133.191 114.623C133.873 114.459 134.925 114.41 134.833 113.412C134.749 112.502 133.695 112.586 133.021 112.315C132.908 112.27 132.772 112.274 132.646 112.27C125.767 112.078 118.886 112.05 112.006 112.235C111.181 112.257 110.381 112.421 109.955 113.476C112.459 114.912 115.233 115.062 118.312 115.41Z" fill="#333334"/>
<path d="M103.196 71.9766C99.6721 71.7452 96.304 72.2155 92.9898 71.625C89.013 70.9165 87.0407 68.5271 87.574 65.2373C88.1106 61.9276 91.4856 59.64 95.0544 60.0122C100.257 60.5548 105.466 61.0476 110.681 61.4485C114.653 61.7539 116.825 63.0777 117.583 65.9367C118.474 69.3009 116.296 72.1825 112.832 72.3626C109.665 72.5273 106.54 71.8993 103.196 71.9766Z" fill="#333334"/>
<path d="M156.14 85.9414C154.442 90.1468 151.032 91.8019 147.043 92.2846C143.742 92.6841 140.374 92.8742 137.124 91.6598C132.207 89.8232 129.639 84.5196 131.445 79.8458C132.521 77.0612 134.696 75.5227 137.69 75.5121C141.414 75.499 145.139 75.4695 148.86 75.5658C155.394 75.7349 158.006 79.4256 156.14 85.9414ZM148.794 81.2769C149.656 84.0325 148.988 86.577 147.336 89.0184C151.345 89.2355 154.45 85.7194 154.01 81.9634C153.78 80.0036 152.687 78.8519 150.801 78.5078C149.767 78.3192 148.696 78.3332 147.465 78.2429C147.932 79.2896 148.312 80.1407 148.794 81.2769ZM138.337 78.7466C137.908 77.7756 137.183 78.081 136.478 78.3181C133.999 79.1522 132.9 82.1718 133.987 85.1569C134.637 86.9404 135.428 87.7458 136.948 88.109C135.619 84.7852 135.681 81.6759 138.337 78.7466Z" fill="#333334"/>
<path d="M93.9548 89.5515C90.8181 87.841 89.176 85.3604 88.9467 81.8873C88.6877 77.9643 90.737 75.1827 94.5989 74.3712C96.6669 73.9367 98.7549 74.0886 100.835 74.0894C103.548 74.0905 106.246 74.4447 108.949 74.6035C115.286 74.9759 116.817 81.3896 114.362 86.1116C113.043 88.6471 110.826 90.1214 108.162 90.7215C103.389 91.7968 98.6363 91.7313 93.9548 89.5515ZM98.0948 87.8697C98.0117 87.5756 98.0019 87.2288 97.8344 86.9955C95.7389 84.0781 96.1967 81.2251 97.993 78.3841C98.218 78.0282 98.5539 77.6683 98.2568 77.1898C93.914 75.949 90.8474 78.4838 91.6279 82.6585C92.1624 85.5171 94.4763 87.4765 98.0948 87.8697ZM110.777 86.4446C112.479 84.7475 112.996 82.6833 112.613 80.3637C112.254 78.1877 109.928 76.8944 107.839 77.6809C109.57 82.3012 109.887 81.7254 107.87 87.6098C109.036 87.9457 109.751 87.1328 110.777 86.4446Z" fill="#333334"/>
<path d="M144.949 73.4334C141.854 73.4247 138.944 73.5095 136.042 73.3882C131.146 73.1835 128.838 69.409 131.029 65.3647C132.019 63.5378 133.676 62.8385 135.59 62.8074C139.885 62.7375 144.181 62.7722 148.477 62.8027C150.243 62.8153 152.011 62.8946 153.775 63.0008C156.332 63.1548 158.215 64.3123 159.154 66.7892C160.579 70.5502 158.406 73.8521 154.398 73.8291C151.31 73.8113 148.224 73.574 144.949 73.4334Z" fill="#333334"/>
<path d="M133.387 92.5826C135.083 94.4187 135.304 96.4487 134.402 98.4996C133.436 100.698 131.55 101.57 129.17 101.53C126.326 101.481 123.48 101.496 120.635 101.524C119.341 101.537 118.124 101.246 116.952 100.754C112.728 98.98 112.046 94.4876 115.532 91.4846C120.133 87.5212 128.506 87.9902 133.387 92.5826Z" fill="#333334"/>
<path d="M157.791 270.169C151.715 271.136 145.801 272.071 139.893 273.037C129.445 274.747 119.002 276.485 108.552 278.183C107.662 278.327 106.466 278.645 106.255 277.276C106.053 275.97 107.143 275.844 108.121 275.685C124.422 273.027 140.722 270.358 157.021 267.69C159.51 267.283 161.996 266.862 164.485 266.457C165.335 266.319 166.258 266.27 166.475 267.337C166.717 268.526 165.75 268.841 164.858 269.003C162.563 269.419 160.257 269.772 157.791 270.169Z" fill="#333334"/>
<path d="M149.372 265.213C146.637 265.831 144.092 265.72 141.576 264.881C140.366 264.478 139.255 263.909 138.27 263.092C134.925 260.315 135.222 256.068 138.925 253.773C143.019 251.236 150.184 251.753 153.926 254.855C156.908 257.327 156.783 261.084 153.662 263.375C152.414 264.291 150.991 264.772 149.372 265.213ZM142.352 255.098C141.942 255.26 141.502 255.373 141.128 255.595C139.937 256.3 138.574 256.925 138.619 258.615C138.661 260.217 139.802 261.074 141.073 261.712C144.53 263.445 148.06 263.358 151.433 261.619C154.156 260.214 154.147 258.039 151.558 256.435C148.801 254.727 145.815 254.267 142.352 255.098Z" fill="#333334"/>
<path d="M128.359 257.837C129.375 257.812 130.499 257.519 130.636 258.763C130.778 260.048 129.638 260.18 128.689 260.319C120.839 261.469 112.993 262.642 105.132 263.717C104.098 263.859 102.388 264.693 102.106 262.936C101.802 261.044 103.702 261.345 104.819 261.18C112.608 260.028 120.408 258.947 128.359 257.837Z" fill="#333334"/>
<path d="M105.947 267.893C112.484 266.78 118.882 265.738 125.282 264.71C127.394 264.371 129.518 264.101 131.625 263.729C132.602 263.556 133.539 263.577 133.753 264.662C133.975 265.787 132.996 266.169 132.095 266.311C126.874 267.133 121.647 267.914 116.423 268.716C113.438 269.174 110.459 269.676 107.469 270.095C105.716 270.341 105.209 269.643 105.947 267.893Z" fill="#333334"/>
<path d="M93.8871 158.987C96.6098 158.081 99.2612 158.453 101.895 158.533C102.465 158.551 103.067 158.812 103.269 159.401C103.94 161.362 103.746 163.382 103.457 165.373C103.363 166.016 102.631 166.087 102.057 166.104C99.6636 166.177 97.2695 166.245 94.8751 166.276C94.1527 166.286 93.3363 166.094 93.3363 165.223C93.3364 163.175 92.7779 161.074 93.8871 158.987Z" fill="#333334"/>
<path d="M131.044 172.252C133.257 171.428 135.415 171.613 137.549 171.687C139.035 171.739 139.881 172.544 139.73 174.142C139.606 175.459 139.466 176.775 139.355 178.093C139.287 178.912 138.69 179.104 138.056 179.222C136.054 179.595 134.035 179.468 132.023 179.35C131.263 179.306 130.586 178.845 130.549 178.106C130.453 176.185 129.982 174.218 131.044 172.252Z" fill="#333334"/>
</svg>
