<svg version="1.1" id="Layer_1" xmlns="http://www.w3.org/2000/svg" xmlns:xlink="http://www.w3.org/1999/xlink" x="0px" y="0px"
	 width="100%" viewBox="0 0 672 1024" enable-background="new 0 0 672 1024" xml:space="preserve">
<path fill="#000000" opacity="1.000000" stroke="none" 
	d="
M509.801971,531.467041 
	C512.416382,545.221375 513.551025,558.577698 510.418610,572.005249 
	C505.592682,592.692505 491.330444,605.984192 470.218964,609.245850 
	C465.455231,609.981873 460.643646,610.410217 455.852356,610.964966 
	C454.316864,611.142822 452.645721,611.309631 452.522766,613.264954 
	C452.033630,621.041138 446.813019,623.077942 440.256592,623.603638 
	C439.962830,623.627197 439.690613,623.919373 438.906036,624.383789 
	C441.132568,632.683289 443.454407,641.123230 445.658234,649.593933 
	C451.938873,673.734009 458.107819,697.885803 461.846924,722.607056 
	C465.589355,747.350098 460.139526,768.898376 442.571136,787.459839 
	C428.534027,802.290283 413.310577,815.655701 397.135132,827.984985 
	C393.391907,830.838135 392.783112,833.036133 394.727051,837.423279 
	C401.269348,852.188416 407.233948,867.209290 413.439270,882.124084 
	C414.531708,884.749695 416.162598,887.310852 412.918793,890.218140 
	C423.098755,894.697083 432.523987,898.820984 441.930298,902.987732 
	C457.435089,909.855957 468.772095,920.571960 474.176697,937.104797 
	C477.842224,948.317810 475.032532,955.853394 464.257599,960.723450 
	C453.933167,965.389771 442.841217,966.820862 431.660461,967.277893 
	C406.716553,968.297424 382.116425,965.663086 357.947327,959.422119 
	C350.081329,957.390991 342.049255,958.704163 334.122528,957.462219 
	C323.477631,955.794373 320.426544,956.681091 310.380066,961.090149 
	C299.362366,965.925354 288.574921,964.298523 277.954956,959.744873 
	C265.698608,954.489624 255.894760,946.044861 247.866348,935.595642 
	C227.119400,908.592651 212.423676,878.534363 203.334320,845.741882 
	C201.687271,839.799683 200.916061,833.718201 201.577103,827.484375 
	C202.482635,818.944824 206.479660,812.765137 214.596069,809.538208 
	C226.988235,804.611206 239.584625,800.335266 252.687775,797.685242 
	C258.904877,796.427917 259.801453,794.909668 257.281616,789.174377 
	C246.898743,765.542664 236.399002,741.962158 226.054993,718.313477 
	C224.691452,715.196228 223.189621,713.906250 219.407333,714.102417 
	C205.838593,714.806335 196.562164,703.752808 199.731049,691.213562 
	C200.663696,687.523132 202.442535,684.129272 205.772736,682.368530 
	C210.305069,679.972107 209.757111,677.372437 207.696518,673.538818 
	C202.145309,663.211121 198.519562,652.112488 195.984146,640.700195 
	C195.184662,637.101501 193.696381,636.225708 190.136993,636.662231 
	C172.298203,638.850342 170.534943,637.462585 167.365982,619.876953 
	C165.176224,607.725281 164.198059,595.384277 164.125366,583.128967 
	C164.047241,569.960022 161.628845,557.421753 158.258713,544.860718 
	C156.057037,536.654663 155.299164,528.158508 154.796570,519.689819 
	C154.617340,516.669983 153.854080,514.950867 150.732208,513.823669 
	C144.852753,511.700897 142.227127,507.698517 142.858902,501.972595 
	C145.373764,479.180420 147.210709,456.274506 153.740891,434.117279 
	C160.124008,412.459045 171.824463,394.930481 192.195694,384.022705 
	C197.916916,380.959290 204.112961,379.024567 209.883621,376.933990 
	C210.679626,374.508484 209.351868,373.246277 208.484711,371.916107 
	C202.449905,362.658875 197.499329,352.869110 194.170334,342.324829 
	C193.319702,339.630493 192.112289,338.805634 189.206390,338.859344 
	C168.626007,339.239868 150.826599,324.705994 146.877060,304.161255 
	C143.174500,284.901245 148.381302,268.550964 163.889603,256.043091 
	C166.107254,254.254517 166.548477,252.796051 165.554001,250.172852 
	C159.229630,233.490646 161.154724,217.800110 171.919922,203.476822 
	C173.896027,200.847565 172.468719,199.244980 171.402054,197.240387 
	C164.088303,183.495621 161.950195,169.301895 169.931107,155.295624 
	C179.997345,137.629669 195.396301,127.474335 215.913498,125.937088 
	C219.611588,125.660004 221.238556,124.901894 222.124237,120.831421 
	C226.321777,101.539948 244.395004,89.446503 264.849304,91.184204 
	C278.380951,92.333786 291.036469,95.727882 302.841156,103.852051 
	C311.308014,88.786484 322.347870,77.164124 341.021393,79.135521 
	C359.306274,81.065887 368.143951,94.253029 373.774017,110.391663 
	C379.057526,108.141571 382.939209,104.644829 387.715088,102.657448 
	C418.176392,89.981552 446.592560,105.392830 452.229004,137.835999 
	C452.640900,140.206863 452.644287,142.352798 455.955688,142.691803 
	C476.200256,144.764420 488.269531,157.181839 495.321472,175.076965 
	C501.322754,190.305817 498.954254,204.888855 489.479340,218.160751 
	C487.655304,220.715759 487.620056,222.641296 488.687744,225.414352 
	C497.781158,249.032013 490.177704,270.273224 468.120972,282.933716 
	C466.078735,284.105927 465.364502,285.459167 465.245789,287.661316 
	C465.030975,291.645111 464.611359,295.620605 464.183655,299.589508 
	C463.718750,303.904114 462.445221,307.796173 458.009247,309.684357 
	C455.811707,310.619781 455.496063,312.417603 455.244965,314.533203 
	C453.560333,328.726990 452.385620,343.014648 448.117950,356.772369 
	C443.935150,370.256744 437.512085,382.583496 428.326782,394.007690 
	C432.187012,396.268677 435.808258,398.210999 439.246124,400.436584 
	C449.718109,407.215851 458.127625,416.274323 466.181335,425.618958 
	C478.706024,440.151276 490.134796,455.530151 500.361847,471.775421 
	C504.499908,478.348572 504.493164,481.246246 499.294586,486.960785 
	C496.776978,489.728271 496.933960,491.932251 498.172302,494.968018 
	C502.954010,506.690155 507.105347,518.627563 509.801971,531.467041 
M201.159561,336.400024 
	C208.598022,359.682098 220.650330,379.455536 243.051636,391.309509 
	C253.080490,396.616394 263.443207,400.954895 275.339722,402.794434 
	C274.258667,398.826385 272.184479,396.506592 271.602081,393.494019 
	C270.789612,389.291016 271.118988,385.366089 274.441711,382.473969 
	C277.740295,379.602783 281.606384,380.351440 285.280334,381.947784 
	C287.722473,383.008911 290.066895,384.292480 292.478638,385.426361 
	C302.047638,389.925110 311.615509,390.684631 321.243622,385.521637 
	C328.003082,381.896942 334.300751,382.465790 340.128632,387.702789 
	C347.456604,394.287842 355.974579,395.605499 365.296021,393.070618 
	C368.504517,392.198059 371.700836,391.141083 374.974823,390.676361 
	C382.954559,389.543701 386.970825,393.576477 386.487610,401.489655 
	C386.332947,404.022034 384.190552,405.834442 384.280334,408.619751 
	C385.190338,408.619751 385.880859,408.781097 386.461090,408.596222 
	C402.514679,403.481689 416.764709,395.720490 426.719513,381.491089 
	C439.382141,363.391083 443.595612,342.669891 445.716370,321.260590 
	C447.256714,305.710541 448.895050,290.170227 450.420807,274.618774 
	C451.557159,263.036346 452.554749,251.440323 453.676453,239.856384 
	C454.000793,236.506821 453.277344,234.362564 449.570587,233.123413 
	C441.807281,230.528122 435.328186,225.669174 430.474365,219.155441 
	C427.386688,215.011871 425.112793,215.330322 421.198303,218.001892 
	C406.398193,228.102737 390.187836,225.909744 378.077576,212.620422 
	C376.983765,211.420135 376.156982,209.850128 373.838837,209.365799 
	C366.041870,216.482178 357.266998,222.271042 345.671692,221.322678 
	C334.088409,220.375290 326.208771,213.667038 320.017853,204.246750 
	C301.053345,221.344788 282.828247,218.288269 264.943176,203.314941 
	C263.844360,204.319031 262.884125,204.991287 262.182037,205.869843 
	C255.307007,214.472641 245.777878,217.145508 235.482834,216.802368 
	C230.535858,216.637482 229.745361,218.489288 229.234039,222.548248 
	C226.429184,244.813278 223.446152,267.056366 220.415833,289.292175 
	C219.459000,296.313171 214.995819,300.590546 209.627274,300.083466 
	C203.754913,299.528809 200.311264,294.582550 200.737778,287.239807 
	C200.814697,285.915833 201.076233,284.602417 201.255783,283.284576 
	C202.063461,277.356506 202.813934,271.419861 203.703323,265.504089 
	C204.210922,262.127869 202.921158,260.237244 199.679520,259.148254 
	C189.848770,255.845734 180.367569,256.025696 171.349411,261.578735 
	C157.495804,270.109192 151.141617,288.484070 156.022873,305.019257 
	C161.469223,323.468719 177.717484,332.076477 192.649734,330.207977 
	C197.809677,329.562286 200.227509,330.649811 201.159561,336.400024 
M253.438293,607.676941 
	C289.812714,606.487000 325.305389,600.551208 361.170166,588.253662 
	C345.359619,579.650635 330.726532,572.105530 316.507141,563.848083 
	C297.649963,552.897400 277.510559,548.160522 255.802948,549.052246 
	C245.994614,549.455261 236.190414,549.310486 226.453522,551.033813 
	C223.321365,551.588196 218.602783,553.027527 218.030930,547.804565 
	C217.521820,543.154724 221.997299,543.307190 225.164841,542.726379 
	C228.106186,542.187134 231.085297,541.854065 234.047485,541.428101 
	C236.888657,541.019470 237.977158,539.497070 237.547653,536.576538 
	C235.757950,524.407776 233.915649,512.242554 232.440994,500.033905 
	C231.899734,495.552826 229.735840,493.877136 225.525604,493.231995 
	C214.575150,491.554016 203.593094,491.622070 192.630051,492.447388 
	C183.137558,493.162048 173.897491,495.347351 165.075958,499.067688 
	C162.979279,499.951935 161.295547,500.979858 161.526031,503.775269 
	C162.852051,519.859680 164.475250,535.904663 168.368835,551.610474 
	C174.378189,575.850830 188.068726,593.556946 212.105225,602.218750 
	C225.154114,606.921021 238.822662,607.320435 253.438293,607.676941 
M461.247528,601.792664 
	C487.586700,600.373230 503.659119,583.600281 503.638031,557.197876 
	C503.617035,530.920349 495.075714,506.899414 483.604156,483.705750 
	C482.347992,481.165924 480.460175,480.123505 477.587860,480.287415 
	C462.709503,481.136383 448.664551,484.596985 436.041016,492.898651 
	C433.715546,494.427948 432.248993,495.828033 433.446625,498.912872 
	C434.530518,501.704651 435.355988,504.031677 439.195221,503.789337 
	C444.664642,503.444092 450.176086,503.383423 455.585449,504.762207 
	C466.768311,507.612640 476.451660,512.649170 482.475128,523.050232 
	C485.487946,528.252563 487.168091,534.185120 483.214294,539.034424 
	C478.117706,545.285217 472.615051,552.247070 465.689575,555.671082 
	C458.786163,559.084229 449.926971,559.244263 441.889618,559.452454 
	C434.664246,559.639587 428.937195,554.644775 423.143311,550.761108 
	C415.533264,545.660034 408.129364,540.228882 399.184875,537.563477 
	C386.266846,533.714111 373.323395,529.884644 360.005280,527.732605 
	C353.874420,526.741943 347.287964,525.207397 341.781647,529.887695 
	C332.988983,537.361450 328.919525,547.708252 324.393646,558.057800 
	C336.611145,564.737183 348.135406,571.423157 359.996002,577.446960 
	C391.483551,593.439209 424.612213,602.978516 461.247528,601.792664 
M234.044571,898.529541 
	C242.214630,913.489990 250.853317,928.189392 263.606567,939.780518 
	C273.936920,949.169434 285.515564,956.196899 300.393127,954.762085 
	C309.130432,953.919434 315.855865,948.303162 316.973236,940.699585 
	C315.220856,940.341309 313.460327,939.944763 311.685455,939.628601 
	C309.885529,939.308044 308.039154,939.200134 306.268555,938.770508 
	C287.285706,934.165283 273.242432,922.568848 262.429749,906.885498 
	C247.930237,885.854675 240.583160,861.755188 233.693054,837.519104 
	C231.515213,829.858582 231.515518,821.832153 230.290146,814.035522 
	C213.684235,815.701172 208.308334,822.305481 210.390366,838.043396 
	C210.499023,838.864624 210.740387,839.667908 210.912292,840.481201 
	C215.231018,860.913391 224.231216,879.488159 234.044571,898.529541 
M304.910400,465.581604 
	C301.107086,460.463226 296.139069,458.677063 289.737244,459.211365 
	C283.290283,459.749481 276.763458,459.341400 270.271698,459.325958 
	C268.252899,459.321167 266.326752,459.366852 264.706207,460.928436 
	C261.232117,464.275970 257.537109,467.402466 254.175308,470.855774 
	C251.299667,473.809692 251.380493,496.199951 254.262100,499.144958 
	C258.216888,503.186676 262.437866,506.966614 266.487732,510.917206 
	C268.080994,512.471436 269.976501,512.624084 272.020660,512.612671 
	C278.345764,512.577271 284.671295,512.627380 290.996429,512.593201 
	C293.582153,512.579285 296.156250,513.245972 296.028412,516.140564 
	C295.756989,522.285034 298.922882,522.085693 303.196869,520.733337 
	C304.615570,520.284485 306.121063,519.867188 307.588562,519.861389 
	C311.850067,519.844421 312.791870,517.511353 312.733734,513.724121 
	C312.577942,503.572784 312.164215,493.380402 312.871796,483.275665 
	C313.391083,475.859802 311.253967,470.364044 304.910400,465.581604 
M345.061676,482.581940 
	C345.056091,490.910248 345.058167,499.238525 345.042969,507.566833 
	C345.024536,517.671875 345.019470,517.598450 355.257751,517.774902 
	C358.227966,517.826172 360.497314,517.656433 360.870575,513.919067 
	C361.077850,511.843811 362.866791,510.844086 364.855652,510.815521 
	C371.183228,510.724640 377.513306,510.708405 383.841095,510.779694 
	C386.543427,510.810120 388.226044,512.323792 388.485504,515.050171 
	C388.721344,517.528259 388.786438,520.027100 388.816895,522.518188 
	C388.831390,523.706055 388.601379,524.978821 389.940826,525.539429 
	C392.513519,526.616150 395.435608,528.509827 397.921722,526.878967 
	C400.534515,525.165039 403.740601,523.042297 403.560364,519.195923 
	C403.211487,511.751038 402.597229,504.696899 395.041199,499.927429 
	C390.677826,497.173218 386.915405,494.746338 381.514587,495.182465 
	C376.052490,495.623535 370.528748,495.287201 365.032227,495.323639 
	C362.801453,495.338409 360.962433,494.848145 360.938507,492.148926 
	C360.906036,488.487091 360.799652,484.810547 361.070648,481.166016 
	C361.299408,478.089722 363.309784,476.376709 366.404602,476.285156 
	C371.063843,476.147278 375.727539,476.119385 380.389221,476.126160 
	C381.913666,476.128387 383.760376,476.384430 384.009644,478.145782 
	C384.957092,484.839661 389.910248,483.729675 394.311584,483.600677 
	C397.049561,483.520508 400.367859,484.082001 401.126434,480.198425 
	C401.842560,476.532043 401.961884,472.929871 398.574921,470.182068 
	C386.469421,460.360901 386.485321,460.340546 370.444427,460.338654 
	C367.446228,460.338287 364.446869,460.299103 361.450470,460.374725 
	C360.305939,460.403534 358.777618,460.292389 358.088562,460.945679 
	C352.006989,466.711945 343.275391,470.884521 345.061676,482.581940 
M449.671600,940.372986 
	C426.439606,943.679321 403.173279,942.846497 379.924072,940.738098 
	C365.499084,939.429810 351.433105,935.799133 337.136505,933.619080 
	C327.391357,932.133179 327.008087,932.348206 326.212280,941.514221 
	C326.085052,942.979614 325.896881,944.439697 325.706390,946.181152 
	C328.918671,947.532227 332.126434,948.143677 335.372620,948.842712 
	C342.138916,950.299805 349.154816,948.185852 355.723236,949.965515 
	C380.841431,956.771118 406.337830,959.939575 432.323364,958.640869 
	C442.140778,958.150330 451.918365,956.877380 460.976471,952.611694 
	C466.397522,950.058777 468.127380,946.111694 466.492462,940.816833 
	C465.754181,938.425842 464.672455,937.179993 461.781433,938.000000 
	C458.113617,939.040100 454.297516,939.557373 449.671600,940.372986 
M447.166687,512.340942 
	C430.601959,511.546631 417.509583,518.165283 406.238037,530.900818 
	C414.467316,533.939026 420.498016,538.701111 426.908295,542.843384 
	C430.813568,545.366882 434.512115,548.272766 438.939423,549.895325 
	C442.103546,551.054932 445.859375,552.529236 447.867767,548.815063 
	C449.880798,545.092102 446.606415,542.636047 443.839172,540.814392 
	C440.096710,538.350708 436.116272,536.244629 432.208771,534.036743 
	C429.653564,532.593018 427.666565,530.746948 429.320129,527.663574 
	C430.955170,524.614746 433.653748,525.137146 436.256378,526.441345 
	C441.169769,528.903442 445.980225,531.542725 450.429749,534.796509 
	C453.783386,537.249023 456.035553,540.490906 457.078308,544.477173 
	C457.631256,546.591125 457.578125,549.077148 460.808502,548.516907 
	C463.561157,548.039551 464.530182,546.046448 464.747253,543.481750 
	C465.229492,537.783691 462.079346,533.939209 457.875763,530.983643 
	C453.397247,527.834778 448.554443,525.206360 443.894409,522.312439 
	C441.578278,520.874146 440.781250,518.664062 441.960968,516.296448 
	C443.085510,514.039368 445.503937,513.476746 447.571777,514.628906 
	C456.699310,519.714661 466.366638,524.179260 471.915710,533.830627 
	C472.468292,534.791687 472.755646,536.087769 474.360382,536.139526 
	C476.480072,534.848938 476.887573,532.941467 476.218567,530.617188 
	C475.022064,526.460266 472.600464,523.157715 469.185272,520.575867 
	C462.927185,515.844788 455.858002,513.168762 447.166687,512.340942 
M347.412994,727.168579 
	C349.759155,732.583374 350.890106,738.515564 354.216980,744.274536 
	C358.932800,741.161011 363.125153,738.228516 367.487274,735.575073 
	C370.082703,733.996277 370.690887,732.326660 369.529572,729.436584 
	C366.365997,721.563354 363.575928,713.540649 360.453369,705.650208 
	C356.816528,696.460144 358.312805,698.134705 349.547119,700.137268 
	C347.763062,700.544800 345.979950,701.102051 344.171204,701.227356 
	C339.611206,701.543457 339.174713,703.765991 340.618317,707.562744 
	C342.983276,713.782715 345.041107,720.119446 347.412994,727.168579 
M279.985291,539.019958 
	C277.855499,543.200256 282.216949,542.171082 283.218201,542.237793 
	C292.277679,542.841553 300.252136,546.519531 308.243683,550.312988 
	C310.731567,551.493896 313.048553,553.316162 316.339478,553.200684 
	C320.780792,544.396057 324.919098,535.399597 329.805298,526.217773 
	C312.291931,526.563293 295.554474,529.171875 279.985291,539.019958 
M369.725861,644.342712 
	C369.702850,642.181396 369.754974,640.016174 369.644684,637.859314 
	C368.934174,623.966553 366.675323,622.072388 353.018311,623.387939 
	C349.209595,623.754883 347.672729,625.294067 348.532288,629.208984 
	C350.842926,639.733154 353.008179,650.289246 355.241058,660.830566 
	C356.339722,666.017334 357.709778,666.581055 362.139954,663.424438 
	C368.396759,658.966370 369.096771,652.113708 369.725861,644.342712 
M322.769012,766.309753 
	C304.535828,778.196533 285.968811,789.474060 264.687988,796.534851 
	C267.153229,799.514282 268.970276,798.645447 270.589355,798.017517 
	C275.854126,795.975525 281.214020,794.099976 286.274292,791.623047 
	C307.998199,780.989502 327.870239,767.294678 347.897675,753.873169 
	C349.109467,753.061096 351.146179,752.373047 349.612152,749.406982 
	C340.358032,754.190613 332.106750,760.460449 322.769012,766.309753 
M332.981842,872.522156 
	C330.332367,874.917908 326.188171,875.651184 324.651337,879.302917 
	C325.760651,880.469055 326.582428,880.126648 327.288330,879.713745 
	C347.543823,867.865845 366.738922,854.466797 385.172028,839.967712 
	C386.333099,839.054443 388.075165,837.876892 385.894196,835.345703 
	C368.960846,848.286804 351.521851,860.570984 332.981842,872.522156 
M274.477081,532.732788 
	C271.772919,526.854065 268.201324,525.004028 259.304504,525.168762 
	C257.314545,525.205566 254.452545,524.155884 253.678040,526.888306 
	C252.935394,529.508362 252.389221,532.723938 254.216705,535.031921 
	C256.120575,537.436340 258.679504,539.110352 262.037598,539.834839 
	C268.260651,541.177429 271.046051,537.159241 274.477081,532.732788 
M368.143036,684.902832 
	C356.050690,687.107422 343.743958,688.339050 331.974823,692.158875 
	C332.629211,695.730469 334.049164,696.623474 337.033478,695.764709 
	C342.127716,694.298645 347.301331,693.064758 352.498779,692.017029 
	C355.728424,691.366028 359.182526,689.603760 362.256165,690.701355 
	C369.676392,693.350830 373.742676,687.924500 380.220795,685.084717 
	C375.545685,682.430481 372.249451,684.713623 368.143036,684.902832 
M332.494659,465.825531 
	C332.317383,464.520386 332.172150,463.209900 331.954742,461.911469 
	C331.678528,460.262207 332.560394,457.606323 329.856934,457.681061 
	C327.605103,457.743286 328.142670,460.192078 328.145325,461.725525 
	C328.150940,464.958466 327.428802,467.328339 323.510559,467.261230 
	C322.134155,467.237610 320.646362,467.714294 320.669220,469.397705 
	C320.691162,471.011536 322.126587,471.644379 323.509064,471.596985 
	C327.509735,471.459808 328.133972,473.883759 328.058105,477.090942 
	C327.987335,480.083435 328.013123,483.082092 328.124237,486.073303 
	C328.178223,487.527649 328.196960,489.220520 330.976776,489.139069 
	C332.794464,485.213928 331.494934,480.848206 331.948975,476.696777 
	C332.155670,474.807068 331.532928,472.540894 334.291107,471.843964 
	C336.173065,471.368469 339.461670,472.534821 339.238800,469.269836 
	C339.035095,466.285614 335.702118,467.760529 333.883698,466.947449 
	C333.582672,466.812836 333.301056,466.634857 332.494659,465.825531 
M403.006775,896.160889 
	C397.496582,897.409058 391.956329,898.540588 386.487823,899.950439 
	C383.376129,900.752686 380.521545,902.495361 382.085541,906.277039 
	C383.569580,909.865417 386.895844,910.311890 390.062439,908.587463 
	C393.257996,906.847168 396.277252,904.713684 399.144409,902.460571 
	C401.720459,900.436096 405.281952,899.464355 406.891418,896.068787 
	C405.571930,895.267639 404.632385,895.706177 403.006775,896.160889 
M407.847321,916.877563 
	C413.973633,913.579529 418.659973,908.288879 425.576691,905.113892 
	C422.406342,902.803772 420.040436,900.429016 416.916962,901.972595 
	C412.771759,904.021179 408.879333,906.609741 404.996918,909.147827 
	C403.423126,910.176697 402.486877,911.897095 402.941467,913.890686 
	C403.438446,916.070129 404.760254,917.399109 407.847321,916.877563 
M295.352722,868.780701 
	C293.815277,871.024963 294.518036,873.173279 296.381409,874.498047 
	C302.327118,878.725159 309.044159,881.246033 315.944427,883.183655 
	C317.299347,880.582092 318.198090,878.629272 315.256683,877.312317 
	C310.079102,874.994141 305.510529,871.654541 300.763275,868.613953 
	C299.193115,867.608337 297.571259,866.662048 295.352722,868.780701 
M295.068481,888.633911 
	C294.965179,892.055176 296.983612,893.770691 299.977234,894.620361 
	C304.129761,895.798950 308.315826,896.861084 312.457031,898.076965 
	C314.050812,898.544922 315.387451,898.791687 316.132446,896.874268 
	C316.834442,895.067566 316.567566,893.637329 314.680115,892.733398 
	C309.887268,890.438293 305.132721,888.060242 300.301788,885.848877 
	C298.045197,884.815979 296.037720,885.057129 295.068481,888.633911 
M235.119598,481.140472 
	C234.630188,473.187714 234.137924,465.235168 233.653397,457.282104 
	C233.529907,455.255096 233.821106,453.008484 231.062683,452.148407 
	C229.425034,459.377563 232.609543,493.355103 235.327972,496.025726 
	C236.149170,491.195343 235.707626,486.628815 235.119598,481.140472 
M423.946014,478.720398 
	C425.574829,484.226166 426.470917,489.995178 429.335449,496.532867 
	C430.875671,490.621948 421.383759,454.975739 417.115509,450.580688 
	C418.353638,460.854462 421.891907,469.219421 423.946014,478.720398 
M219.003174,701.861084 
	C216.269897,702.509338 213.887238,701.648499 212.458313,699.406372 
	C209.375748,694.569519 213.601013,691.370667 216.022995,687.595093 
	C210.238358,688.372498 207.774734,691.350586 208.047409,696.648743 
	C208.308563,701.723022 212.316040,705.452393 217.598419,705.536865 
	C222.792709,705.619934 226.919998,702.138977 227.296127,697.153931 
	C224.099060,697.590637 222.733566,701.068359 219.003174,701.861084 
M234.569305,668.993713 
	C235.968277,669.122009 236.966339,668.298706 237.178085,667.145508 
	C238.314163,660.958130 239.420761,654.758911 240.250366,648.525513 
	C240.529449,646.428467 239.044067,645.653748 236.826553,646.374939 
	C236.076492,650.422485 234.997406,654.451294 234.675705,658.539673 
	C234.410294,661.912415 232.256653,665.194519 234.569305,668.993713 
M363.055023,431.513153 
	C361.481873,434.685852 362.488556,437.147583 365.572174,438.370392 
	C368.431030,439.504059 370.713104,438.261475 372.061768,435.446655 
	C372.975891,433.538818 372.628571,431.791626 371.060486,430.526794 
	C368.504700,428.465271 365.900818,428.676117 363.055023,431.513153 
M355.807983,446.294159 
	C359.572906,442.984131 359.668915,439.385498 355.987335,437.771881 
	C354.043152,436.919739 352.068298,436.939362 350.448608,438.505157 
	C349.096375,439.812347 348.088470,441.335083 349.039185,443.352081 
	C350.255554,445.932617 352.309143,446.943085 355.807983,446.294159 
M275.982147,429.431915 
	C277.373932,426.560822 276.739929,424.189148 273.899261,422.783569 
	C271.603943,421.647827 269.387909,422.085419 267.724823,424.240570 
	C266.159058,426.269531 266.283508,428.330811 268.084839,430.014191 
	C270.464630,432.238068 273.058167,432.399902 275.982147,429.431915 
M289.737030,432.747803 
	C287.272797,430.515442 284.672302,430.363129 282.321320,432.717041 
	C280.617188,434.423370 280.633331,436.655121 281.990997,438.597809 
	C283.364502,440.563232 285.461487,441.179962 287.664520,440.246277 
	C290.827087,438.905914 291.477661,436.439758 289.737030,432.747803 
M220.476624,690.626892 
	C219.997269,691.506409 219.326187,692.491577 220.408875,693.282104 
	C221.775665,694.280151 223.049164,693.521545 223.912445,692.469238 
	C226.653687,689.127930 229.327759,685.727661 231.913681,682.264954 
	C232.752289,681.141907 234.105637,679.675964 232.395828,678.360046 
	C230.709167,677.061890 229.698074,678.616028 228.783691,679.801331 
	C226.139847,683.228455 223.521255,686.674988 220.476624,690.626892 
M257.866821,418.612061 
	C260.947754,420.414368 263.290741,419.455780 264.991943,416.581909 
	C266.251038,414.454865 265.360046,412.669434 263.612854,411.365509 
	C261.338684,409.668213 258.856476,409.638031 256.821167,411.676727 
	C254.631271,413.870453 255.131882,416.161224 257.866821,418.612061 
M382.988953,426.700073 
	C385.712708,423.721130 384.851074,421.128021 381.796997,419.260071 
	C379.001312,417.550232 376.682465,418.750763 375.063965,421.376862 
	C374.053314,423.016693 374.399078,424.582733 375.633057,425.962708 
	C377.563690,428.121765 379.838348,428.460205 382.988953,426.700073 
M316.195160,448.253540 
	C319.231934,450.326172 321.810364,449.617645 323.834778,446.789764 
	C325.195435,444.889069 324.679016,442.942627 323.062958,441.473907 
	C321.147736,439.733307 318.802246,439.519226 316.720062,441.028107 
	C314.263184,442.808563 313.503876,445.138275 316.195160,448.253540 
M341.681458,443.607239 
	C339.703522,440.759674 337.120667,440.422180 334.364624,442.186859 
	C332.504547,443.377777 331.839996,445.332031 332.924774,447.396851 
	C334.088684,449.612305 336.003967,451.139679 338.586273,450.317596 
	C341.368652,449.431854 343.107330,447.533997 341.681458,443.607239 
M307.671143,442.942078 
	C308.155243,440.361206 307.503418,438.252533 304.852509,437.364197 
	C302.438141,436.555115 300.134552,436.991058 298.834717,439.387756 
	C297.559326,441.739380 298.144714,443.898834 300.382721,445.445587 
	C303.383240,447.519257 305.640533,446.442780 307.671143,442.942078 
M246.080719,632.286438 
	C245.696472,638.181946 246.331863,644.104187 244.815216,650.613464 
	C251.274673,645.593628 251.671860,638.312866 246.080719,632.286438 
M230.938812,642.221191 
	C229.614639,638.689941 233.591705,635.550598 231.978683,631.771301 
	C225.742844,636.315552 225.443253,644.651367 231.148773,648.739746 
	C232.181671,646.815552 231.725220,644.915344 230.938812,642.221191 
M224.069824,677.728882 
	C225.838577,672.927063 227.607315,668.125244 229.794891,662.186401 
	C222.390381,667.250977 220.717453,672.115173 224.069824,677.728882 
M237.192993,682.418823 
	C236.514923,684.284424 237.558640,683.998047 238.586014,683.465393 
	C243.690353,680.818970 245.437119,674.248413 242.301559,668.200623 
	C240.130539,672.801392 239.920380,677.791260 237.192993,682.418823 
M240.810974,630.682251 
	C240.513306,628.923218 241.528931,626.625122 237.970535,625.357788 
	C237.059296,629.629700 236.314606,633.424133 238.145172,637.700562 
	C241.631638,636.209534 240.508301,633.596191 240.810974,630.682251 
z"/>
<path fill="#000000" opacity="1.000000" stroke="none" 
	d="
M425.832520,279.732544 
	C432.796417,281.099854 434.178040,283.515289 432.890686,290.454315 
	C426.696167,323.842529 389.653442,329.937378 369.355103,314.409485 
	C367.934235,313.322540 366.495056,312.259552 364.993378,311.132111 
	C359.343689,326.042297 344.672302,330.787903 331.377258,322.280823 
	C321.770325,316.133698 322.021484,305.598633 331.930328,299.909973 
	C337.879944,296.494293 344.177399,295.924164 350.770355,297.645386 
	C352.481354,298.092041 354.063965,299.303619 356.300018,298.638184 
	C355.225555,293.464417 353.632660,288.422638 353.184448,283.129547 
	C352.690369,277.294769 354.808350,274.456818 360.668030,274.833923 
	C375.117981,275.763763 389.552063,276.941650 403.991302,278.035980 
	C411.127441,278.576813 418.260895,279.153381 425.832520,279.732544 
M397.323822,286.447906 
	C395.281433,286.966675 395.251099,288.898438 394.693451,290.370636 
	C391.950653,297.611633 386.416321,301.410828 379.141693,302.919220 
	C376.644196,303.437073 374.023743,303.362244 371.192657,303.578583 
	C377.698792,311.668488 389.816956,315.486664 400.885773,313.164642 
	C412.071899,310.817932 419.562866,304.298859 423.216980,293.381775 
	C424.441864,289.722229 423.120178,288.023560 419.490448,287.770874 
	C412.369629,287.275116 405.246124,286.817810 397.323822,286.447906 
z"/>
<path fill="#000000" opacity="1.000000" stroke="none" 
	d="
M374.515564,360.588104 
	C371.770996,356.521698 368.031586,354.335632 363.932617,352.822784 
	C347.409393,346.724426 330.414673,344.589966 312.923279,347.173035 
	C305.057373,348.334625 298.939331,352.172943 294.877106,359.144501 
	C292.840637,362.639465 290.496216,365.981995 286.290253,367.031281 
	C282.706451,367.925323 279.236816,367.294891 276.577271,364.560577 
	C273.050751,360.934875 273.002380,356.403229 274.236115,351.926910 
	C275.737701,346.478821 279.069336,342.104950 283.419098,338.545074 
	C295.178223,328.921234 309.149597,325.197113 323.857666,325.119446 
	C339.357117,325.037537 354.698181,327.502869 369.435089,332.591888 
	C382.225372,337.008698 391.858246,344.878845 395.552673,358.542786 
	C396.549011,362.227814 397.238617,365.927673 396.516083,369.846161 
	C395.637177,374.612701 392.858551,377.365021 388.265747,377.888641 
	C383.576050,378.423340 380.296143,376.033234 378.603485,371.637604 
	C377.234955,368.083679 376.854980,364.170746 374.515564,360.588104 
z"/>
<path fill="#000000" opacity="1.000000" stroke="none" 
	d="
M271.395447,308.741821 
	C259.292389,300.505371 253.850677,289.117432 253.495071,275.081970 
	C253.354492,269.532928 255.277695,267.407135 260.987640,267.749969 
	C278.404755,268.795563 295.807861,270.079132 313.212891,271.319672 
	C318.016235,271.662018 322.819153,272.076691 327.600830,272.640137 
	C333.022430,273.278992 334.762756,275.726562 333.901093,281.096985 
	C329.228119,310.222992 298.316040,324.064209 271.395447,308.741821 
M309.851715,302.475800 
	C316.862854,298.642120 321.811523,293.171783 324.070007,285.322998 
	C325.043762,281.938873 323.811676,280.627869 320.669037,280.401215 
	C315.040161,279.995178 309.396973,279.744141 303.782867,279.192841 
	C300.261261,278.846985 298.472412,279.959961 297.271637,283.520203 
	C294.325928,292.254181 287.207916,297.057037 277.983521,297.367645 
	C276.133453,297.429901 274.141510,296.906677 272.277740,298.061157 
	C280.506561,306.747559 295.303955,308.562836 309.851715,302.475800 
z"/>
<path fill="#000000" opacity="1.000000" stroke="none" 
	d="
M281.184937,233.687744 
	C296.390228,234.718903 311.136444,235.648941 325.865051,236.803436 
	C333.001343,237.362793 338.500854,243.565186 338.133789,250.135544 
	C337.749603,257.012024 332.094910,262.640045 324.828888,262.216583 
	C305.938416,261.115662 287.061462,259.708038 268.208069,258.086304 
	C261.516174,257.510681 256.543549,251.211502 256.907745,244.973511 
	C257.290771,238.412857 262.429657,233.183762 269.300873,232.920776 
	C273.091553,232.775681 276.911713,233.400955 281.184937,233.687744 
z"/>
<path fill="#000000" opacity="1.000000" stroke="none" 
	d="
M434.825531,254.635315 
	C435.600128,263.905457 430.692139,269.539154 421.899933,269.309235 
	C403.291931,268.822571 384.772369,266.915527 366.249817,265.204773 
	C359.591248,264.589783 355.092957,258.173737 355.714417,251.146393 
	C356.272186,244.839752 361.816467,239.866913 368.393768,240.268143 
	C385.972382,241.340485 403.545319,242.526443 421.107056,243.845871 
	C427.742371,244.344376 432.938080,247.159378 434.825531,254.635315 
z"/>
<path fill="#000000" opacity="1.000000" stroke="none" 
	d="
M361.876831,363.062927 
	C363.218872,364.569183 364.422913,365.749786 365.269562,367.146973 
	C366.810852,369.690460 366.465363,372.265137 364.749359,374.625092 
	C362.951202,377.097992 360.228973,378.036682 357.674133,376.783600 
	C343.735016,369.946899 328.879974,371.098328 314.109009,371.405029 
	C310.255951,371.485046 306.838013,370.602814 306.147949,366.341888 
	C305.431793,361.919830 307.990265,358.932983 312.080627,357.751709 
	C318.507385,355.895752 325.176056,355.322571 331.827484,355.785004 
	C342.103088,356.499451 352.446564,357.182770 361.876831,363.062927 
z"/>
<path fill="#000000" opacity="1.000000" stroke="none" 
	d="
M292.195648,476.167480 
	C296.245728,479.774323 297.746674,489.280365 295.261047,493.272461 
	C293.899231,495.459686 291.829193,496.270416 289.342377,496.264771 
	C284.863434,496.254639 280.384460,496.263428 275.905487,496.259583 
	C271.706757,496.255981 269.389038,493.951569 268.906769,489.990448 
	C268.588654,487.377930 268.575226,484.655853 268.928528,482.051086 
	C269.454315,478.174744 271.631165,475.669708 275.887360,475.722839 
	C281.188934,475.789032 286.489899,475.907898 292.195648,476.167480 
z"/>
</svg>